# File created by Blade
# Date/Time:  Wed Jan 21 19:14:05 2015
#---------------------------------------------------------
:version 1.10
:name HOM
:units
  mass 1.0
  length 1.000000
  angle deg
:documentation
     Acclaim Skeleton File
:root
   axis xyz
   order TX TY TZ RX RY RZ
   position 0.000000 0.000000 0.000000
   orientation 0 0 0
:bonedata
   begin
      id 1
      name RightUpLeg_dum
      direction -1.000000 0.000000 0.000000
      length 3.693983
      axis 0.0 0.0 0.0 xyz
   end
   begin
      id 2
      name LeftUpLeg_dum
      direction 1.000000 0.000000 0.000000
      length 3.693983
      axis 0.0 0.0 0.0 xyz
   end
   begin
      id 3
      name Spine_dum
      direction 0.000000 1.000000 0.000000
      length 2.392956
      axis 0.0 0.0 0.0 xyz
   end
   begin
      id 4
      name RightUpLeg
      direction 0.000000 -1.000000 0.000000
      length 15.795667
      axis 0.0 0.0 0.0 xyz
      dof rx ry rz
   end
   begin
      id 5
      name RightLeg
      direction 0.000000 -1.000000 0.000000
      length 14.766989
      axis 0.0 0.0 0.0 xyz
      dof rx ry rz
   end
   begin
      id 6
      name RightFoot
      direction 0.000000 -0.258819 0.965926
      length 4.962790
      axis 15.0 0.0 0.0 xyz
      dof rx ry rz
   end
   begin
      id 7
      name RightToeBase
      direction 0.000000 0.000000 1.000000
      length 2.952750
      axis 0.0 0.0 0.0 xyz
      dof rx ry rz
   end
   begin
      id 8
      name LeftUpLeg
      direction 0.000000 -1.000000 0.000000
      length 15.795667
      axis 0.0 0.0 0.0 xyz
      dof rx ry rz
   end
   begin
      id 9
      name LeftLeg
      direction 0.000000 -1.000000 0.000000
      length 14.766989
      axis 0.0 0.0 0.0 xyz
      dof rx ry rz
   end
   begin
      id 10
      name LeftFoot
      direction 0.000000 -0.258819 0.965926
      length 4.962790
      axis 15.0 0.0 0.0 xyz
      dof rx ry rz
   end
   begin
      id 11
      name LeftToeBase
      direction 0.000000 0.000000 1.000000
      length 2.952750
      axis 0.0 0.0 0.0 xyz
      dof rx ry rz
   end
   begin
      id 12
      name Spine
      direction 0.000000 1.000000 0.000000
      length 0.000000
      axis 0.0 0.0 0.0 xyz
      dof rx ry rz
   end
   begin
      id 13
      name Spine_dum1
      direction 0.000000 1.000000 0.000000
      length 13.207411
      axis 0.0 0.0 0.0 xyz
   end
   begin
      id 14
      name Spine_dum2
      direction 0.000000 1.000000 0.000000
      length 13.207411
      axis 0.0 0.0 0.0 xyz
   end
   begin
      id 15
      name Spine_dum3
      direction 0.000000 1.000000 0.000000
      length 19.250100
      axis 0.0 0.0 0.0 xyz
   end
   begin
      id 16
      name RightShoulder
      direction -1.000000 0.000000 0.000000
      length 8.140465
      axis 0.0 0.0 90.0 xyz
      dof rx ry rz
   end
   begin
      id 17
      name RightArm
      direction -1.000000 0.000000 0.000000
      length 10.649840
      axis 0.0 0.0 90.0 xyz
      dof rx ry rz
   end
   begin
      id 18
      name RightForeArm
      direction -1.000000 0.000000 0.000000
      length 8.304624
      axis 0.0 0.0 90.0 xyz
      dof ry rz rx
   end
   begin
      id 19
      name RightHand
      direction -1.000000 0.000000 0.000000
      length 0.000000
      axis 0.0 0.0 90.0 xyz
      dof rx ry rz
   end
   begin
      id 20
      name RightHand_dum1
      direction -1.000000 0.000000 0.000000
      length 3.937000
      axis 0.0 0.0 90.0 xyz
   end
   begin
      id 21
      name RightHand_dum2
      direction 0.000000 0.000000 0.000000
      length 0.000000
      axis 0.0 0.0 90.0 xyz
   end
   begin
      id 22
      name RightHandThumb1
      direction 0.000000 0.000000 1.000000
      length 3.937000
      axis 0.0 0.0 90.0 xyz
      dof rx rz ry
   end
   begin
      id 23
      name LeftShoulder
      direction 1.000000 0.000000 0.000000
      length 8.140465
      axis 0.0 0.0 -90.0 xyz
      dof rx ry rz
   end
   begin
      id 24
      name LeftArm
      direction 1.000000 0.000000 0.000000
      length 10.649840
      axis 0.0 0.0 -90.0 xyz
      dof rx ry rz
   end
   begin
      id 25
      name LeftForeArm
      direction 1.000000 0.000000 0.000000
      length 8.304624
      axis 0.0 0.0 -90.0 xyz
      dof ry rz rx
   end
   begin
      id 26
      name LeftHand
      direction 1.000000 0.000000 0.000000
      length 0.000000
      axis 0.0 0.0 -90.0 xyz
      dof rx ry rz
   end
   begin
      id 27
      name LeftHand_dum1
      direction 1.000000 0.000000 0.000000
      length 3.937000
      axis 0.0 0.0 -90.0 xyz
   end
   begin
      id 28
      name LeftHand_dum2
      direction 0.000000 0.000000 0.000000
      length 0.000000
      axis 0.0 0.0 -90.0 xyz
   end
   begin
      id 29
      name LeftHandThumb1
      direction 0.000000 0.000000 1.000000
      length 3.937000
      axis 0.0 0.0 -90.0 xyz
      dof rx rz ry
   end
   begin
      id 30
      name Head
      direction 0.000000 1.000000 0.000000
      length 4.527550
      axis 0.0 0.0 0.0 xyz
      dof rx ry rz
   end
:hierarchy
   begin
      root RightUpLeg_dum LeftUpLeg_dum Spine_dum
      RightUpLeg_dum RightUpLeg
      LeftUpLeg_dum LeftUpLeg
      Spine_dum Spine
      RightUpLeg RightLeg
      RightLeg RightFoot
      RightFoot RightToeBase
      LeftUpLeg LeftLeg
      LeftLeg LeftFoot
      LeftFoot LeftToeBase
      Spine Spine_dum1 Spine_dum2 Spine_dum3
      Spine_dum1 RightShoulder
      Spine_dum2 LeftShoulder
      Spine_dum3 Head
      RightShoulder RightArm
      RightArm RightForeArm
      RightForeArm RightHand
      RightHand RightHand_dum1 RightHand_dum2
      RightHand_dum2 RightHandThumb1
      LeftShoulder LeftArm
      LeftArm LeftForeArm
      LeftForeArm LeftHand
      LeftHand LeftHand_dum1 LeftHand_dum2
      LeftHand_dum2 LeftHandThumb1
   end

# File created by Blade
# Date/Time:  Wed Jan 21 19:13:57 2015
# Frame Rate: 120.000 fps
#------------------------------------------------------
:FULLY-SPECIFIED
:DEGREES
326
root -4.745649 34.020119 -1.702785 26.020543 64.350239 -79.369367
RightUpLeg 7.172597 -7.178734 -31.462811
RightLeg 70.137715 -0.000000 -0.000000
RightFoot 34.878874 -21.005986 17.283786
RightToeBase 42.744661 -0.000000 -0.000000
LeftUpLeg -106.516268 21.062455 -12.182980
LeftLeg 0.820892 -0.000000 -0.000000
LeftFoot -8.156988 -1.537120 3.731943
LeftToeBase 3.617904 -0.000000 -0.000000
Spine -71.145695 -3.898831 21.192785
RightShoulder -35.115184 0.523639 -32.252549
RightArm -12.497028 -39.976202 49.617347
RightForeArm -10.918888 -0.000000 2.285162
RightHand 5.540851 -0.000000 24.568142
RightHandThumb1 -24.326973 -0.000000 -32.862282
LeftShoulder -19.566794 -14.433531 58.363677
LeftArm 45.419839 -33.601775 -14.991714
LeftForeArm 21.437115 -0.000000 16.821179
LeftHand -22.764069 -0.000000 18.804535
LeftHandThumb1 -26.253704 0.000000 33.147579
Head -20.319461 26.915796 39.043325
327
root -4.760255 34.028893 -1.669921 26.263124 64.116776 -79.350323
RightUpLeg 7.246797 -7.133442 -31.451993
RightLeg 69.785136 -0.000000 -0.000000
RightFoot 34.818081 -21.121042 17.325104
RightToeBase 42.666772 -0.000000 -0.000000
LeftUpLeg -106.766175 21.362604 -12.053230
LeftLeg 0.959967 -0.000000 -0.000000
LeftFoot -8.230231 -1.120590 3.790843
LeftToeBase 3.576266 -0.000000 -0.000000
Spine -71.327407 -3.790511 21.267607
RightShoulder -35.121924 0.453060 -32.238952
RightArm -12.212689 -39.723769 49.195997
RightForeArm -11.234765 -0.000000 2.439821
RightHand 5.576847 0.000000 24.683895
RightHandThumb1 -24.326973 -0.000000 -32.862282
LeftShoulder -19.598125 -14.431851 58.368389
LeftArm 45.587478 -33.680755 -15.111010
LeftForeArm 21.780480 -0.000000 17.207500
LeftHand -22.893452 -0.000000 18.745352
LeftHandThumb1 -26.253704 0.000000 33.147579
Head -20.215504 26.978058 38.871655
328
root -4.775875 34.036912 -1.633167 26.341870 63.850138 -79.511604
RightUpLeg 7.288461 -7.021100 -31.366810
RightLeg 69.425708 -0.000000 -0.000000
RightFoot 34.863925 -20.994126 17.057935
RightToeBase 42.910579 -0.000000 -0.000000
LeftUpLeg -106.989667 21.740344 -11.816871
LeftLeg 1.055109 -0.000000 -0.000000
LeftFoot -8.269556 -0.549617 3.992087
LeftToeBase 3.308026 -0.000000 -0.000000
Spine -71.489986 -3.633370 21.381794
RightShoulder -35.035001 0.698532 -32.425198
RightArm -12.435858 -39.783179 49.106936
RightForeArm -11.463202 0.000000 2.559818
RightHand 5.487356 -0.000000 24.779799
RightHandThumb1 -24.326973 -0.000000 -32.862282
LeftShoulder -19.636196 -14.463082 58.421676
LeftArm 45.702265 -33.627522 -15.131115
LeftForeArm 21.936341 -0.000000 17.520296
LeftHand -22.891722 -0.000000 18.766364
LeftHandThumb1 -26.253704 0.000000 33.147579
Head -20.096551 27.051256 38.767189
329
root -4.791356 34.045024 -1.595671 26.448512 63.556575 -79.669562
RightUpLeg 7.288755 -6.845681 -31.263507
RightLeg 69.141110 -0.000000 -0.000000
RightFoot 34.832125 -21.063898 17.165675
RightToeBase 42.820116 -0.000000 -0.000000
LeftUpLeg -107.263542 22.128984 -11.615705
LeftLeg 1.178910 -0.000000 -0.000000
LeftFoot -8.334954 0.014688 4.174127
LeftToeBase 3.242920 -0.000000 -0.000000
Spine -71.666311 -3.438561 21.465162
RightShoulder -34.964590 0.787243 -32.532162
RightArm -12.491314 -39.616248 48.883927
RightForeArm -11.834673 -0.000000 2.753113
RightHand 5.446019 -0.000000 24.955138
RightHandThumb1 -24.326973 -0.000000 -32.862282
LeftShoulder -19.666426 -14.461628 58.430737
LeftArm 45.834919 -33.557157 -15.025836
LeftForeArm 21.978189 -0.000000 17.685518
LeftHand -22.853425 -0.000000 18.565149
LeftHandThumb1 -26.253704 0.000000 33.147579
Head -19.984827 27.174599 38.679406
330
root -4.805151 34.053922 -1.557329 26.606976 63.266016 -79.730709
RightUpLeg 7.344093 -6.681129 -31.225899
RightLeg 68.823450 -0.000000 -0.000000
RightFoot 34.993540 -20.861377 17.010838
RightToeBase 43.018735 -0.000000 -0.000000
LeftUpLeg -107.434685 22.519480 -11.382026
LeftLeg 1.247144 -0.000000 -0.000000
LeftFoot -8.327158 0.634998 4.438636
LeftToeBase 2.966729 -0.000000 -0.000000
Spine -71.807154 -3.292982 21.511408
RightShoulder -34.917854 0.833107 -32.583427
RightArm -12.358625 -39.797824 48.688644
RightForeArm -11.817648 -0.000000 2.613269
RightHand 5.486736 -0.000000 24.997458
RightHandThumb1 -24.326973 -0.000000 -32.862282
LeftShoulder -19.714939 -14.393878 58.454977
LeftArm 46.032390 -33.634708 -15.091326
LeftForeArm 22.218247 -0.000000 17.840294
LeftHand -22.856638 -0.000000 18.361849
LeftHandThumb1 -26.253704 0.000000 33.147579
Head -19.919980 27.328939 38.652637
331
root -4.822519 34.065415 -1.516887 26.675932 62.948434 -79.929892
RightUpLeg 7.327215 -6.483507 -31.126686
RightLeg 68.560171 -0.000000 -0.000000
RightFoot 35.123501 -20.836495 17.107807
RightToeBase 42.996481 -0.000000 -0.000000
LeftUpLeg -107.658291 22.970235 -11.130223
LeftLeg 1.313078 -0.000000 -0.000000
LeftFoot -8.326777 1.215234 4.598021
LeftToeBase 2.853479 -0.000000 -0.000000
Spine -71.937012 -3.106463 21.587576
RightShoulder -34.870189 0.939170 -32.606939
RightArm -12.304345 -39.695497 48.398101
RightForeArm -12.135516 0.000000 2.657407
RightHand 5.409027 -0.000000 25.217071
RightHandThumb1 -24.326973 -0.000000 -32.862282
LeftShoulder -19.798099 -14.395279 58.558930
LeftArm 46.164628 -33.612629 -15.113750
LeftForeArm 22.341961 -0.000000 17.970271
LeftHand -22.754062 0.000000 18.072585
LeftHandThumb1 -26.253704 0.000000 33.147579
Head -19.897739 27.482121 38.705798
332
root -4.843423 34.076417 -1.476636 26.762031 62.635972 -80.065144
RightUpLeg 7.371835 -6.279371 -31.073474
RightLeg 68.307146 -0.000000 -0.000000
RightFoot 35.223592 -20.697845 17.132845
RightToeBase 42.991331 -0.000000 -0.000000
LeftUpLeg -107.835412 23.406753 -10.918246
LeftLeg 1.367637 -0.000000 -0.000000
LeftFoot -8.325777 1.767569 4.704139
LeftToeBase 2.679257 -0.000000 -0.000000
Spine -72.029100 -2.967977 21.622183
RightShoulder -34.775596 1.041402 -32.599007
RightArm -12.326692 -39.735003 48.177467
RightForeArm -12.313572 -0.000000 2.669464
RightHand 5.374948 -0.000000 25.292538
RightHandThumb1 -24.326973 -0.000000 -32.862282
LeftShoulder -19.872971 -14.388974 58.656670
LeftArm 46.292852 -33.586739 -15.027864
LeftForeArm 22.363362 0.000000 17.978705
LeftHand -22.680881 0.000000 17.910582
LeftHandThumb1 -26.253704 0.000000 33.147579
Head -19.900697 27.641016 38.843708
